<svg width="879" height="305" viewBox="0 0 879 305" fill="none" xmlns="http://www.w3.org/2000/svg">
<path d="M317.902 142.544C316.878 142.545 315.896 142.953 315.172 143.677C314.448 144.401 314.04 145.383 314.039 146.407V300.722C314.04 301.746 314.448 302.728 315.172 303.452C315.896 304.176 316.878 304.584 317.902 304.585H344.098C345.122 304.584 346.104 304.176 346.828 303.452C347.552 302.728 347.959 301.746 347.96 300.722V146.407C347.959 145.383 347.552 144.401 346.828 143.677C346.104 142.953 345.122 142.545 344.098 142.544H317.902Z" fill="#3F3D56"/>
<path d="M535.741 142.544C534.717 142.545 533.735 142.953 533.011 143.677C532.287 144.401 531.879 145.383 531.878 146.407V300.722C531.879 301.746 532.287 302.728 533.011 303.452C533.735 304.176 534.717 304.584 535.741 304.585H561.937C562.961 304.584 563.943 304.176 564.667 303.452C565.391 302.728 565.799 301.746 565.8 300.722V146.407C565.799 145.383 565.391 144.401 564.667 143.677C563.943 142.953 562.961 142.545 561.937 142.544H535.741Z" fill="#3F3D56"/>
<path d="M658.127 19.9407L457.273 4.43372L617.513 31.7557L655.912 25.1097L658.127 19.9407Z" fill="#3F3D56"/>
<path d="M618.99 29.3247L657.389 22.6787L657.766 21.7987L659.604 21.9407L657.389 27.1097L618.99 33.7557L458.75 4.43372L506.237 10.0997L618.99 29.3247Z" fill="#6C63FF"/>
<path d="M203.251 19.9407L2.39648 4.43372L162.637 31.7557L201.036 25.1097L203.251 19.9407Z" fill="#3F3D56"/>
<path d="M160.422 29.3247L198.82 22.6787L199.198 21.7987L201.036 21.9407L198.82 27.1097L160.422 33.7557L0.180664 4.43372L47.6677 10.0997L160.422 29.3247Z" fill="#6C63FF"/>
<path d="M692.095 100.43L675.111 101.169L519.515 166.815L510.61 174.274L482.38 197.904H393.767L367.08 174.274L356.934 165.287L207.681 101.907L194.39 100.43L238.696 79.0155H238.932C248.975 69.4822 335.948 62.0315 441.766 62.0315C547.583 62.0315 634.556 69.4823 644.599 79.0155H645.574L692.095 100.43Z" fill="#3F3D56"/>
<path d="M237.479 80.1102C237.794 79.2248 237.956 78.2923 237.958 77.3525V42.2798C237.958 40.0761 237.082 37.9627 235.524 36.4045C233.966 34.8463 231.852 33.9709 229.649 33.9709H226.275C229.045 31.1754 230.926 27.6225 231.68 23.76C232.435 19.8975 232.029 15.8981 230.515 12.2656C229 8.63316 226.445 5.53013 223.17 3.34744C219.895 1.16476 216.048 6.10352e-05 212.112 6.10352e-05C208.177 6.10352e-05 204.329 1.16476 201.055 3.34744C197.78 5.53013 195.224 8.63316 193.71 12.2656C192.195 15.8981 191.79 19.8975 192.544 23.76C193.299 27.6225 195.18 31.1754 197.95 33.9709H194.576C193.485 33.9709 192.404 34.1858 191.396 34.6034C190.388 35.0209 189.472 35.633 188.701 36.4045C187.929 37.1761 187.317 38.092 186.9 39.1001C186.482 40.1082 186.267 41.1886 186.267 42.2798V77.3525C186.267 78.7887 186.64 80.2001 187.352 81.4477C184.844 81.8874 182.336 82.3648 179.828 82.9163C178.301 83.2579 176.935 84.1104 175.958 85.333C174.98 86.5557 174.449 88.0752 174.452 89.6405V97.9735C174.452 99.8001 175.178 101.552 176.469 102.844C177.761 104.135 179.513 104.861 181.339 104.861H259.372V84.1846C252.167 82.3699 244.855 81.0091 237.479 80.1102V80.1102Z" fill="#3F3D56"/>
<path d="M699.272 82.9163C696.764 82.3648 694.257 81.8874 691.749 81.4477C692.46 80.2001 692.834 78.7887 692.834 77.3525V42.2798C692.834 41.1886 692.619 40.1082 692.201 39.1001C691.784 38.092 691.172 37.1761 690.4 36.4045C689.628 35.633 688.713 35.0209 687.704 34.6034C686.696 34.1858 685.616 33.9709 684.525 33.9709H681.151C683.921 31.1754 685.802 27.6225 686.556 23.76C687.311 19.8975 686.905 15.8981 685.391 12.2656C683.877 8.63313 681.321 5.53007 678.046 3.34738C674.771 1.16469 670.924 0 666.988 0C663.053 0 659.205 1.16469 655.931 3.34738C652.656 5.53007 650.1 8.63313 648.586 12.2656C647.071 15.8981 646.666 19.8975 647.42 23.76C648.175 27.6225 650.056 31.1754 652.826 33.9709H649.452C648.361 33.9709 647.28 34.1858 646.272 34.6034C645.264 35.0209 644.348 35.633 643.577 36.4045C642.805 37.1761 642.193 38.092 641.776 39.1001C641.358 40.1082 641.143 41.1886 641.143 42.2798V77.3525C641.145 78.2923 641.307 79.2248 641.622 80.1102C634.246 81.0091 626.934 82.3699 619.729 84.1846V104.861H697.761C699.588 104.861 701.34 104.135 702.631 102.844C703.923 101.552 704.649 99.8001 704.649 97.9735V89.6405C704.652 88.0752 704.12 86.5557 703.143 85.333C702.165 84.1104 700.8 83.2579 699.272 82.9163V82.9163Z" fill="#3F3D56"/>
<path d="M675.85 19.9407L876.704 4.43372L716.464 31.7557L678.065 25.1097L675.85 19.9407Z" fill="#3F3D56"/>
<path d="M453.653 191.258H422.494C421.339 191.258 420.197 191.485 419.13 191.927C418.064 192.368 417.095 193.016 416.279 193.832C415.463 194.648 414.816 195.617 414.374 196.683C413.932 197.749 413.705 198.892 413.705 200.046V206.838C413.706 208.622 414.25 210.363 415.265 211.83C416.28 213.297 417.718 214.421 419.387 215.05C418.099 216.597 417.395 218.547 417.397 220.56V222.507C417.397 223.896 417.733 225.265 418.375 226.496C419.018 227.727 419.949 228.784 421.089 229.577V255.502H455.057V229.577C456.197 228.784 457.129 227.727 457.771 226.496C458.414 225.265 458.75 223.896 458.75 222.508V220.56C458.752 218.547 458.048 216.597 456.76 215.051C458.429 214.421 459.866 213.297 460.882 211.83C461.897 210.363 462.441 208.622 462.442 206.838V200.046C462.442 198.892 462.214 197.749 461.773 196.683C461.331 195.617 460.684 194.648 459.868 193.832C459.052 193.016 458.083 192.368 457.017 191.927C455.95 191.485 454.807 191.258 453.653 191.258V191.258Z" fill="#3F3D56"/>
<path d="M406.408 251.833C405.02 251.834 403.69 252.386 402.709 253.367C401.728 254.348 401.177 255.678 401.175 257.065V298.982C401.176 300.37 401.728 301.7 402.709 302.681C403.69 303.662 405.02 304.214 406.408 304.216H469.739C471.127 304.214 472.457 303.662 473.438 302.681C474.418 301.7 474.97 300.37 474.972 298.982V257.065C474.97 255.678 474.418 254.348 473.437 253.367C472.456 252.386 471.126 251.835 469.739 251.833H406.408Z" fill="#6C63FF"/>
<path d="M510.61 174.274L482.38 197.904H393.767L367.08 174.274H393.62L394.779 168.492C395.119 166.791 396.037 165.261 397.378 164.161C398.719 163.061 400.399 162.459 402.134 162.459H476.228C477.963 162.459 479.643 163.061 480.984 164.161C482.325 165.261 483.243 166.791 483.583 168.492L484.742 174.274H510.61Z" fill="#6C63FF"/>
<path d="M438.074 298.7C449.493 298.7 458.75 289.443 458.75 278.024C458.75 266.605 449.493 257.348 438.074 257.348C426.655 257.348 417.397 266.605 417.397 278.024C417.397 289.443 426.655 298.7 438.074 298.7Z" fill="#3F3D56"/>
<path d="M438.073 289.839C444.598 289.839 449.888 284.549 449.888 278.024C449.888 271.499 444.598 266.209 438.073 266.209C431.548 266.209 426.258 271.499 426.258 278.024C426.258 284.549 431.548 289.839 438.073 289.839Z" fill="#E6E6E6"/>
<path d="M445.215 268.627C446.948 270.899 447.798 273.722 447.607 276.573C447.417 279.423 446.198 282.108 444.178 284.128C442.158 286.148 439.473 287.367 436.622 287.558C433.772 287.749 430.949 286.899 428.677 285.166C429.696 286.509 430.991 287.619 432.474 288.421C433.958 289.222 435.596 289.696 437.278 289.811C438.96 289.927 440.647 289.68 442.226 289.088C443.805 288.497 445.239 287.574 446.431 286.381C447.624 285.189 448.547 283.755 449.138 282.176C449.73 280.597 449.976 278.91 449.861 277.228C449.746 275.546 449.272 273.908 448.47 272.424C447.669 270.941 446.559 269.646 445.215 268.627V268.627Z" fill="white"/>
<path d="M705.018 91.7241H174.821V95.1062H705.018V91.7241Z" fill="#E6E6E6"/>
<path d="M717.941 29.3247L679.542 22.6787L679.165 21.7987L677.327 21.9407L679.542 27.1097L717.941 33.7557L878.181 4.43372L830.694 10.0997L717.941 29.3247Z" fill="#6C63FF"/>
<path d="M220.973 19.9407L421.828 4.43372L261.587 31.7557L223.189 25.1097L220.973 19.9407Z" fill="#3F3D56"/>
<path d="M263.803 29.3247L225.404 22.6787L225.027 21.7987L223.189 21.9407L225.404 27.1097L263.803 33.7557L424.043 4.43372L376.556 10.0997L263.803 29.3247Z" fill="#6C63FF"/>
<path d="M468.718 168.735H409.644V180.55H468.718V168.735Z" fill="#E6E6E6"/>
</svg>
