<svg id="Capa_1" enable-background="new 0 0 512.611 512.611" height="512" viewBox="0 0 512.611 512.611" width="512" xmlns="http://www.w3.org/2000/svg"><g><g><path d="m133.524 373.498h52.053v31.403h-52.053z" fill="#b5adb6" transform="matrix(-1 0 0 -1 319.1 778.399)"/><path d="m328.035 373.498h51.053v31.403h-51.053z" fill="#b5adb6"/><path d="m233.933 256.069h43.746v125.141h-43.746z" fill="#efe2dd"/><path d="m415.182 189.831h44.392v-35.263c0-5.35-4.337-9.688-9.688-9.688h-25.016c-5.35 0-9.688 4.337-9.688 9.688z" fill="#e1d3ce"/><path d="m97.429 190.831h-44.392v-36.263c0-5.35 4.337-9.688 9.688-9.688h25.017c5.35 0 9.688 4.337 9.688 9.688v36.263z" fill="#e1d3ce"/><path d="m432.836 172.755c0-9.127 7.399-16.525 16.525-16.525h10.212v-1.661c0-5.35-4.337-9.688-9.688-9.688h-25.015c-5.35 0-9.688 4.337-9.688 9.688v35.263h17.654z" fill="#cdbfba"/><path d="m70.691 172.755c0-9.127 7.399-16.525 16.525-16.525h10.213v-1.661c0-5.35-4.337-9.688-9.688-9.688h-25.016c-5.35 0-9.688 4.337-9.688 9.688v36.263h17.654z" fill="#cdbfba"/><path d="m126.64 248.069-49.837 47.634c-1.242 1.187-1.944 2.83-1.944 4.548v88.066c0 6.412-5.198 11.61-11.61 11.61-6.002 0-11.014-4.574-11.562-10.551l-9.707-105.918c-.131-1.431.232-2.865 1.028-4.061l43.18-64.851 21.719-21.04 45.173 37.694z" fill="#e1d3ce"/><path d="m426.424 214.547 43.18 64.851c.797 1.196 1.16 2.63 1.028 4.061l-9.707 105.918c-.548 5.977-5.56 10.551-11.562 10.551-6.412 0-11.61-5.198-11.61-11.61v-88.066c0-1.718-.702-3.361-1.944-4.548l-49.837-47.634-32.411-23.618 54.003-33.028z" fill="#e1d3ce"/><path d="m373.936 187.528-32.989-32.989c-5.177-5.177-12.197-8.085-19.518-8.085h-130.247c-7.321 0-14.342 2.908-19.518 8.085l-32.989 32.989-18.073 21.582 77.761 43.218h169.725l35.511-37.781z" fill="#d5e3f4"/><path d="m166.18 232.776 18.073-21.582 23.936-23.936c10.973-10.973 25.855-17.137 41.372-17.137h106.967l-15.582-15.582c-5.176-5.177-12.197-8.085-19.518-8.085h-130.246c-7.321 0-14.342 2.908-19.518 8.085l-32.989 32.989-18.073 21.582 77.761 43.218h2.997z" fill="#b3ceec"/><g><g id="XMLID_341_"><g><path d="m360.937 247.588h-194.083l-18.808 24.471 21.07 23.62c3.25 3.65 7.9 5.73 12.78 5.73h148.82c4.88 0 9.53-2.08 12.78-5.73l21.07-23.62z" fill="#efe2dd"/><path d="m107.906 193.508-21.719 21.04-13.318 20.002h10.483c2.815 0 5.496 1.201 7.369 3.301l21.452 24.045 14.465-13.826 26.442-16.87z" fill="#cdbfba"/><path d="m426.424 214.547-18.86-23.124-54.003 33.028 32.411 23.618 14.465 13.826 21.555-24.159c1.809-2.027 4.396-3.186 7.113-3.186h10.637z" fill="#cdbfba"/><path d="m488.636 181.829c9.04 0 16.36 7.33 16.36 16.36 0 4.52-1.83 8.6-4.79 11.57-2.96 2.96-7.05 4.79-11.57 4.79h-72.76l-51.31 57.51h-216.52l-51.31-57.51h-72.76c-9.04 0-16.36-7.33-16.36-16.36 0-4.52 1.83-8.6 4.79-11.57 2.96-2.96 7.05-4.79 11.57-4.79h100.65c2.04 0 4.05.49 5.86 1.44l56.38 29.34c2.44 1.27 5.15 1.94 7.91 1.94h123.06c2.76 0 5.47-.67 7.91-1.94l56.38-29.34c1.81-.95 3.82-1.44 5.86-1.44z" fill="#f3eae6"/></g></g><path d="m348.422 283.961h-148.82c-4.88 0-9.53-2.08-12.78-5.73l-21.07-23.62-2.308-2.587-15.399 20.035 21.07 23.62c3.25 3.65 7.9 5.73 12.78 5.73h148.82c4.88 0 9.53-2.08 12.78-5.73l11.715-13.132c-2.121.917-4.426 1.414-6.788 1.414z" fill="#e1d3ce"/><g><path d="m165.752 254.611-51.31-57.51h-72.76c-8.672 0-15.743-6.751-16.305-15.272h-1.401c-4.52 0-8.61 1.83-11.57 4.79-2.96 2.97-4.79 7.05-4.79 11.57 0 9.03 7.32 16.36 16.36 16.36h72.76l51.31 57.51h33.271z" fill="#efe2dd"/></g><g><path d="m329.989 430.28c4.996 0 9.046-4.05 9.046-9.046v-64.069c0-4.996-4.05-9.046-9.046-9.046h-148.366c-4.996 0-9.046 4.05-9.046 9.046v64.069c0 4.996 4.05 9.046 9.046 9.046z" fill="#cbc4cc"/></g><circle cx="255.806" cy="389.199" fill="#b5adb6" r="51.873"/><path d="m231.862 389.199c0-23.808 16.093-43.865 37.955-49.965-4.445-1.24-9.172-1.908-14.012-1.908-28.649 0-51.873 23.224-51.873 51.873s23.224 51.873 51.873 51.873c4.84 0 9.589-.681 14.034-1.921-21.862-6.099-37.977-26.143-37.977-49.952z" fill="#a79ba7"/><circle cx="255.806" cy="389.199" fill="#a79ba7" r="21.873"/><path d="m375.893 422.057h13.441c4.311 0 7.806-3.495 7.806-7.806v-50.103c0-4.311-3.495-7.806-7.806-7.806h-13.441c-4.311 0-7.806 3.495-7.806 7.806v50.103c0 4.311 3.495 7.806 7.806 7.806z" fill="#cbc4cc"/><path d="m135.718 422.057h-13.441c-4.311 0-7.806-3.495-7.806-7.806v-50.103c0-4.311 3.495-7.806 7.806-7.806h13.441c4.311 0 7.806 3.495 7.806 7.806v50.103c0 4.311-3.495 7.806-7.806 7.806z" fill="#cbc4cc"/><g fill="#f9f3f1"><path d="m385.835 115.881h103.086c8.942 0 16.19-7.249 16.19-16.19 0-8.942-7.249-16.19-16.19-16.19h-103.086c-8.942 0-16.19 7.249-16.19 16.19 0 8.941 7.248 16.19 16.19 16.19z"/><path d="m126.776 115.881h-103.086c-8.942 0-16.19-7.249-16.19-16.19 0-8.942 7.249-16.19 16.19-16.19h103.086c8.942 0 16.19 7.249 16.19 16.19.001 8.941-7.248 16.19-16.19 16.19z"/></g></g></g><g><path d="m488.639 174.331h-21.564v-19.763c0-9.477-7.71-17.188-17.188-17.188h-5.009v-14h44.043c13.063 0 23.69-10.627 23.69-23.69s-10.628-23.69-23.69-23.69h-44.043v-4.461c0-4.142-3.357-7.5-7.5-7.5s-7.5 3.358-7.5 7.5v4.461h-44.043c-13.063 0-23.69 10.627-23.69 23.69s10.628 23.69 23.69 23.69h44.043v14h-5.008c-9.478 0-17.188 7.71-17.188 17.188v19.763h-19.692c-3.236 0-6.463.79-9.33 2.283l-3.309 1.722-29.1-29.1c-6.63-6.63-15.445-10.281-24.821-10.281h-85.535c-4.142 0-7.5 3.358-7.5 7.5s3.358 7.5 7.5 7.5h85.535c5.369 0 10.417 2.091 14.214 5.888l25.756 25.756-39.113 20.36c-1.368.711-2.905 1.088-4.447 1.088h-123.068c-1.542 0-3.08-.376-4.447-1.088l-39.113-20.36 25.756-25.756c3.796-3.797 8.844-5.888 14.214-5.888h12.75c4.142 0 7.5-3.358 7.5-7.5s-3.358-7.5-7.5-7.5h-12.75c-9.377 0-18.192 3.651-24.821 10.281l-29.1 29.1-3.309-1.722c-2.869-1.494-6.095-2.283-9.331-2.283h-19.692v-19.763c0-9.477-7.71-17.188-17.188-17.188h-5.008v-14h44.043c13.063 0 23.69-10.627 23.69-23.69s-10.627-23.69-23.69-23.69h-44.043v-4.461c0-4.142-3.358-7.5-7.5-7.5s-7.5 3.358-7.5 7.5v4.461h-44.043c-13.063 0-23.69 10.628-23.69 23.691s10.627 23.69 23.69 23.69h44.043v14h-5.008c-9.478 0-17.188 7.71-17.188 17.188v19.763h-21.564c-13.156 0-23.858 10.703-23.858 23.858s10.703 23.858 23.858 23.858h48.21l-35.419 53.195c-1.74 2.614-2.541 5.776-2.254 8.902l2.284 24.923c.357 3.892 3.626 6.816 7.46 6.816.229 0 .46-.01.693-.032 4.125-.378 7.162-4.028 6.784-8.153l-2.244-24.499 40.717-61.153h3.172l22.843 25.607-44.599 42.628c-2.708 2.589-4.262 6.223-4.262 9.969v88.066c0 2.267-1.844 4.111-4.111 4.111-2.138 0-3.897-1.606-4.093-3.736l-4.505-49.155c-.378-4.125-4.017-7.162-8.153-6.784-4.125.378-7.162 4.028-6.784 8.153l4.505 49.155c.908 9.9 9.089 17.367 19.03 17.367 10.538 0 19.111-8.573 19.111-19.111v-87.549l43.852-41.914 37.306 41.821c4.668 5.233 11.368 8.234 18.381 8.234h44.536v28.724c-1.615.923-3.182 1.919-4.697 2.985h-40.113c-9.124 0-16.546 7.422-16.546 16.546v8.833h-14.053v-1.85c0-8.439-6.866-15.306-15.306-15.306h-13.441c-8.439 0-15.306 6.866-15.306 15.306v50.103c0 8.439 6.866 15.306 15.306 15.306h13.441c8.439 0 15.306-6.866 15.306-15.306v-1.85h14.053v8.833c0 9.124 7.422 16.546 16.546 16.546h40.113c9.652 6.79 21.399 10.792 34.07 10.792s24.418-4.003 34.07-10.792h40.112c9.124 0 16.547-7.423 16.547-16.546v-8.833h14.053v1.85c0 8.439 6.866 15.306 15.306 15.306h13.441c8.439 0 15.306-6.866 15.306-15.306v-50.103c0-8.439-6.866-15.306-15.306-15.306h-13.441c-8.439 0-15.306 6.866-15.306 15.306v1.85h-14.053v-8.833c0-9.124-7.423-16.546-16.547-16.546h-40.112c-1.516-1.066-3.083-2.062-4.697-2.985v-28.723h45.536c7.013 0 13.712-3.001 18.38-8.234l37.307-41.821 43.852 41.914v87.549c0 10.538 8.573 19.111 19.11 19.111 9.941 0 18.123-7.466 19.03-17.367l9.707-105.919c.286-3.125-.515-6.285-2.254-8.9l-35.419-53.195h48.21c13.155 0 23.857-10.703 23.857-23.858s-10.701-23.859-23.856-23.859zm.282-83.331c4.792 0 8.69 3.898 8.69 8.69s-3.898 8.69-8.69 8.69h-44.043v-17.38zm-103.086 17.381c-4.792 0-8.69-3.898-8.69-8.69s3.898-8.69 8.69-8.69h44.043v17.38zm-259.059-17.381c4.792 0 8.69 3.898 8.69 8.69s-3.898 8.69-8.69 8.69h-44.043v-17.38zm-103.086 17.381c-4.792 0-8.69-3.898-8.69-8.69s3.898-8.69 8.69-8.69h44.043v17.38zm398.993 46.187c0-1.206.981-2.188 2.188-2.188h25.017c1.206 0 2.188.981 2.188 2.188v19.763h-29.392v-19.763zm-362.146 0c0-1.206.981-2.188 2.188-2.188h25.017c1.206 0 2.188.981 2.188 2.188v19.763h-29.393zm75.487 259.683c0 .168-.137.306-.306.306h-13.441c-.168 0-.306-.137-.306-.306v-50.103c0-.168.137-.306.306-.306h13.441c.168 0 .306.137.306.306zm15-16.85v-16.403h14.053v16.403zm29.053 23.833v-64.069c0-.853.693-1.546 1.546-1.546h25.254c-6.58 9.558-10.444 21.125-10.444 33.581s3.864 24.022 10.444 33.581h-25.254c-.853-.001-1.546-.695-1.546-1.547zm31.356-32.035c0-24.467 19.906-44.373 44.373-44.373 24.468 0 44.373 19.906 44.373 44.373s-19.905 44.373-44.373 44.373c-24.468.001-44.373-19.905-44.373-44.373zm164.155-25.051c0-.168.137-.306.306-.306h13.441c.169 0 .306.137.306.306v50.103c0 .168-.137.306-.306.306h-13.441c-.169 0-.306-.137-.306-.306zm-15 16.85v16.403h-14.053v-16.403zm-29.053-23.833v64.069c0 .853-.694 1.546-1.547 1.546h-25.253c6.58-9.558 10.444-21.125 10.444-33.581s-3.864-24.022-10.444-33.581h25.253c.853.001 1.547.694 1.547 1.547zm-61.356-25.57c-4.605-1.149-9.417-1.769-14.373-1.769s-9.768.62-14.373 1.769v-22.685h28.746zm192.946-48.395-9.668 105.493c-.195 2.13-1.955 3.736-4.093 3.736-2.267 0-4.11-1.844-4.11-4.111v-88.066c0-3.746-1.553-7.379-4.263-9.97l-44.599-42.627 22.843-25.607h3.171zm25.514-76.153h-72.764c-2.138 0-4.174.912-5.597 2.507l-49.068 55.006h-37.55c-4.143 0-7.5 3.358-7.5 7.5s3.357 7.5 7.5 7.5h24.17l-9.929 11.13c-1.825 2.046-4.444 3.219-7.187 3.219h-148.817c-2.742 0-5.362-1.173-7.188-3.22l-9.928-11.13h126.916c4.143 0 7.5-3.358 7.5-7.5s-3.357-7.5-7.5-7.5h-140.296l-49.068-55.006c-1.423-1.595-3.459-2.507-5.597-2.507h-72.763c-4.885 0-8.858-3.974-8.858-8.858s3.974-8.858 8.858-8.858h100.648c.834 0 1.665.203 2.404.588l56.372 29.344c3.497 1.821 7.43 2.783 11.374 2.783h123.069c3.943 0 7.876-.962 11.373-2.783l56.374-29.346c.738-.384 1.569-.587 2.403-.587h100.648c4.884 0 8.857 3.974 8.857 8.858s-3.973 8.86-8.856 8.86z"/><path d="m255.806 359.826c-16.196 0-29.373 13.177-29.373 29.373s13.177 29.373 29.373 29.373 29.373-13.177 29.373-29.373-13.177-29.373-29.373-29.373zm0 43.747c-7.925 0-14.373-6.448-14.373-14.373s6.448-14.373 14.373-14.373c7.926 0 14.373 6.448 14.373 14.373s-6.448 14.373-14.373 14.373z"/></g></g></svg>